<?xml version="1.0" standalone="no"?>
<!DOCTYPE svg PUBLIC "-//W3C//DTD SVG 20010904//EN"
 "http://www.w3.org/TR/2001/REC-SVG-20010904/DTD/svg10.dtd">
<svg version="1.0" xmlns="http://www.w3.org/2000/svg"
 width="512.000000pt" height="109.000000pt" viewBox="0 0 512.000000 109.000000"
 preserveAspectRatio="xMidYMid meet">

<g transform="translate(0.000000,109.000000) scale(0.100000,-0.100000)"
fill="#ffffff" stroke="none">
<path d="M578 1037 c-76 -26 -162 -82 -211 -136 -18 -20 -60 -52 -93 -70 -73
-41 -179 -119 -218 -160 -56 -58 26 -28 119 43 100 77 191 117 282 125 70 5
78 8 81 28 2 15 -5 27 -23 39 -24 16 -29 16 -88 -4 l-62 -21 49 45 c150 138
395 165 573 63 302 -173 355 -576 106 -809 -67 -63 -128 -99 -203 -121 -64
-18 -73 -31 -10 -14 182 48 332 204 371 385 17 78 7 223 -21 293 -35 92 -98
176 -175 235 -102 77 -156 95 -295 99 -100 3 -124 1 -182 -20z"/>
<path d="M787 940 c-37 -16 -100 -50 -139 -76 -41 -26 -74 -42 -76 -35 -2 7
-9 6 -19 -4 -10 -11 -37 -15 -96 -15 -73 0 -90 -4 -152 -34 -77 -37 -155 -91
-155 -106 0 -18 64 2 154 49 77 39 101 46 170 51 45 4 89 10 99 14 12 6 17 4
17 -7 0 -21 -21 -25 -105 -25 -73 0 -152 -23 -209 -61 l-29 -19 36 -7 c28 -6
48 -1 94 21 45 22 76 29 138 32 44 2 86 9 94 15 10 9 13 7 10 -8 -4 -18 -13
-20 -94 -20 -68 -1 -99 -5 -127 -20 -21 -10 -38 -22 -38 -26 0 -17 58 -19 95
-3 22 9 67 16 100 17 79 0 110 15 173 81 29 30 62 58 73 61 10 4 19 12 19 20
0 7 20 37 45 66 66 78 41 90 -78 39z"/>
<path d="M810 809 c-19 -11 -58 -44 -86 -72 -73 -74 -72 -74 -165 -79 -46 -2
-93 -9 -103 -15 -19 -10 -18 -11 3 -22 16 -9 31 -9 55 -1 18 6 55 11 82 12 27
0 57 4 67 10 13 6 17 5 17 -7 0 -12 -13 -15 -59 -15 -71 0 -120 -15 -103 -32
8 -8 26 -8 67 1 30 7 64 9 75 6 22 -7 53 11 44 26 -3 5 0 9 5 9 6 0 11 -8 11
-19 0 -22 -26 -31 -88 -31 -44 0 -52 -19 -9 -21 16 -1 17 -3 5 -6 -20 -5 -125
25 -133 38 -11 17 -72 9 -100 -13 -22 -17 -42 -22 -92 -22 l-65 -1 4 48 c3 26
1 47 -3 47 -5 0 -9 -20 -9 -45 0 -38 -5 -49 -35 -76 -39 -35 -48 -86 -20 -109
13 -11 14 -10 9 4 -7 18 12 46 31 46 6 0 20 -28 29 -62 21 -76 66 -163 112
-216 18 -22 31 -42 27 -45 -3 -3 2 -14 11 -23 9 -9 20 -14 23 -10 4 3 13 0 22
-8 14 -13 16 -10 17 29 0 24 -3 42 -8 39 -4 -3 -8 2 -8 10 0 9 -7 13 -20 11
-42 -8 -158 160 -174 253 -4 23 -2 32 8 32 7 0 32 14 54 30 23 17 45 30 49 30
5 0 8 -19 8 -43 0 -31 8 -56 27 -85 24 -35 26 -45 17 -71 -9 -25 -7 -33 10
-50 39 -39 54 -70 42 -85 -8 -10 -9 -16 -2 -21 6 -3 9 -19 7 -34 -2 -23 1 -28
18 -27 18 1 21 7 21 46 0 25 4 50 8 57 4 7 -1 29 -12 49 -11 21 -18 41 -15 46
3 4 23 18 46 29 22 11 38 26 35 32 -3 9 14 12 58 12 l63 0 6 -75 c3 -41 6
-122 7 -180 2 -110 8 -130 41 -130 21 0 21 2 3 70 -17 66 -17 107 0 114 9 3
21 4 25 1 5 -3 24 13 42 36 32 40 33 45 35 138 2 104 18 330 21 295 1 -12 9
-38 17 -58 8 -19 14 -39 13 -43 -7 -37 53 -59 70 -25 13 26 36 187 29 211 -3
12 -2 19 3 16 4 -3 11 2 14 11 4 10 1 14 -6 11 -7 -2 -26 7 -41 19 -37 31
-108 32 -157 3z m131 1 c10 -6 19 -21 19 -33 0 -21 -1 -21 -13 3 -7 15 -25 28
-42 31 -25 5 -26 7 -7 8 13 0 32 -4 43 -9z m36 -52 c-3 -7 -5 -2 -5 12 0 14 2
19 5 13 2 -7 2 -19 0 -25z m13 -22 c0 -2 -8 -10 -17 -17 -16 -13 -17 -12 -4 4
13 16 21 21 21 13z m-295 -66 c-3 -5 -14 -10 -23 -10 -15 0 -15 2 -2 10 20 13
33 13 25 0z m260 0 c3 -5 1 -10 -4 -10 -6 0 -11 5 -11 10 0 6 2 10 4 10 3 0 8
-4 11 -10z m-468 -292 c-3 -8 -6 -5 -6 6 -1 11 2 17 5 13 3 -3 4 -12 1 -19z
m300 -124 c-16 -13 -33 -21 -39 -18 -14 9 -1 133 15 152 9 12 15 3 32 -48 l20
-62 -28 -24z m-322 57 c0 -16 -3 -27 -7 -24 -13 7 -7 53 6 53 1 0 1 -13 1 -29z"/>
<path d="M3065 680 c-65 -5 -68 -6 -42 -18 l27 -12 0 -275 0 -275 -25 -10
c-14 -5 -25 -12 -25 -15 0 -3 50 -5 110 -5 109 0 131 6 88 25 l-23 10 -3 293
c-2 270 -4 292 -20 290 -9 -1 -48 -4 -87 -8z"/>
<path d="M4003 665 c-15 -11 -23 -26 -23 -45 0 -62 94 -81 133 -27 l21 27 -21
28 c-24 33 -77 41 -110 17z"/>
<path d="M3818 605 c-3 -3 -28 -9 -55 -13 l-48 -7 -3 -53 c-3 -50 -4 -52 -33
-52 -16 0 -29 -4 -29 -10 0 -5 13 -10 29 -10 l29 0 4 -171 4 -171 32 -29 c51
-45 143 -33 173 22 15 29 5 35 -20 10 -12 -12 -27 -21 -34 -21 -32 0 -37 24
-37 192 l0 168 44 0 c25 0 48 5 51 10 4 6 -13 10 -44 10 l-50 0 -3 66 c-2 36
-6 63 -10 59z"/>
<path d="M4018 483 c-38 -2 -68 -8 -68 -13 0 -6 7 -10 15 -10 29 0 36 -38 33
-197 -3 -153 -4 -158 -25 -168 -44 -19 -22 -25 88 -25 71 0 108 4 104 10 -3 5
-13 10 -21 10 -27 0 -34 49 -34 226 0 134 -3 174 -12 172 -7 -1 -43 -3 -80 -5z"/>
<path d="M1465 470 c3 -5 12 -10 20 -10 22 0 25 -25 25 -196 l0 -164 -25 -10
c-14 -5 -25 -12 -25 -15 0 -3 54 -5 120 -5 73 0 120 4 120 10 0 6 -9 10 -19
10 -44 0 -51 23 -51 161 0 137 10 178 49 199 29 15 30 13 18 -20 -19 -51 20
-92 70 -74 37 13 53 56 32 92 -12 22 -23 28 -60 30 -38 2 -52 -2 -78 -23 l-31
-27 0 26 c0 26 0 26 -86 26 -54 0 -83 -4 -79 -10z"/>
<path d="M1925 457 c-96 -55 -124 -229 -53 -330 41 -58 141 -83 212 -53 32 13
76 62 89 99 9 24 -2 21 -34 -9 -16 -15 -43 -28 -68 -31 -36 -5 -44 -2 -74 28
-25 26 -35 46 -40 83 -4 26 -4 52 -1 57 3 5 54 9 115 9 l109 0 -1 28 c-1 48
-25 96 -59 120 -46 31 -139 31 -195 -1z m130 -10 c8 -13 18 -44 21 -70 l7 -47
-65 0 -65 0 4 28 c9 59 14 73 33 92 26 26 46 25 65 -3z"/>
<path d="M2190 472 c0 -4 8 -12 18 -18 9 -6 51 -95 92 -197 72 -179 76 -187
103 -187 15 0 27 1 27 3 0 1 29 83 65 182 39 110 72 186 85 197 11 9 20 19 20
22 0 3 -31 6 -70 6 -40 0 -70 -4 -70 -10 0 -5 6 -10 14 -10 23 0 46 -29 46
-58 0 -28 -60 -212 -70 -212 -7 0 -90 232 -90 253 0 10 8 17 19 17 11 0 23 5
26 10 4 6 -33 10 -104 10 -61 0 -111 -3 -111 -8z"/>
<path d="M2715 461 c-65 -40 -95 -100 -95 -189 0 -101 36 -168 107 -198 86
-37 178 -2 223 84 17 34 6 37 -23 8 -31 -31 -69 -41 -109 -30 -45 13 -70 53
-76 119 l-4 55 112 0 113 0 -5 52 c-5 44 -11 57 -42 85 -33 31 -41 33 -103 33
-49 0 -77 -5 -98 -19z m130 -21 c8 -16 15 -47 15 -70 l0 -40 -60 0 c-66 0 -69
4 -50 69 20 72 68 93 95 41z"/>
<path d="M3328 460 c-20 -11 -40 -29 -43 -41 -17 -53 28 -99 79 -80 41 16 49
71 14 96 -20 13 -21 17 -8 25 23 15 67 12 84 -6 11 -10 16 -34 16 -74 0 -68
-7 -75 -100 -105 -73 -24 -110 -62 -110 -112 0 -21 6 -45 13 -54 41 -53 136
-52 186 2 17 18 21 20 21 6 0 -39 80 -60 135 -35 31 14 32 25 3 24 -23 -1 -23
1 -28 154 -3 85 -9 163 -14 173 -15 32 -61 47 -138 47 -52 -1 -83 -6 -110 -20z
m126 -327 c-26 -19 -51 -16 -68 9 -28 39 -20 68 32 116 l47 44 3 -78 c2 -65 0
-81 -14 -91z"/>
<path d="M4320 473 c-37 -14 -74 -49 -91 -87 -21 -47 -25 -148 -8 -207 30
-100 166 -149 275 -100 75 34 109 106 102 216 -8 127 -69 185 -193 184 -38 0
-77 -3 -85 -6z m119 -24 c45 -49 54 -263 13 -332 -21 -37 -55 -46 -82 -22 -59
53 -49 344 12 368 25 10 37 7 57 -14z"/>
<path d="M4650 460 c0 -11 7 -20 15 -20 29 0 36 -38 33 -187 -3 -143 -4 -148
-25 -158 -44 -19 -22 -25 85 -25 l107 0 -25 20 c-23 18 -25 26 -28 121 -5 125
4 185 29 210 24 24 84 26 93 3 3 -9 6 -85 6 -171 0 -146 -1 -155 -20 -160 -49
-13 -12 -23 85 -23 58 0 105 4 105 9 0 5 -10 11 -22 13 -23 3 -23 6 -28 171
l-5 169 -28 24 c-23 19 -39 24 -87 24 -52 0 -64 -4 -95 -31 l-35 -31 0 31 0
31 -80 0 c-73 0 -80 -2 -80 -20z"/>
</g>
</svg>
