<?xml version="1.0" standalone="no"?>
<!DOCTYPE svg PUBLIC "-//W3C//DTD SVG 20010904//EN"
 "http://www.w3.org/TR/2001/REC-SVG-20010904/DTD/svg10.dtd">
<svg version="1.0" xmlns="http://www.w3.org/2000/svg"
 width="34.000000pt" height="34.000000pt" viewBox="0 0 400.000000 340.000000"
 preserveAspectRatio="xMidYMid meet">

<g transform="translate(0.000000,340.000000) scale(0.100000,-0.100000)"
fill="#ffffff" stroke="none">
<path d="M2160 3370 c-164 -17 -373 -72 -515 -135 -205 -91 -425 -255 -570
-425 -62 -72 -79 -86 -184 -141 -163 -87 -353 -206 -489 -309 -129 -97 -328
-272 -355 -313 -17 -27 -17 -27 6 -27 38 0 139 29 195 56 29 14 110 71 180
126 250 199 500 348 672 402 113 36 270 59 343 51 99 -11 167 3 204 40 58 58
34 146 -50 180 -86 35 -212 17 -386 -57 -53 -22 -103 -43 -111 -46 -23 -9 90
111 167 177 492 423 1198 510 1778 219 665 -333 1020 -1073 864 -1797 -122
-559 -530 -1014 -1070 -1192 -64 -21 -147 -44 -183 -50 -53 -10 -66 -16 -66
-31 0 -23 6 -23 123 7 154 39 213 61 352 130 171 86 295 175 435 315 229 229
380 510 452 840 19 90 22 134 22 315 0 178 -3 227 -22 322 -154 770 -800 1322
-1578 1347 -77 3 -173 1 -214 -4z"/>
<path d="M2625 3049 c-214 -77 -480 -217 -715 -377 -68 -46 -126 -80 -127 -76
-8 23 -46 78 -49 69 -1 -5 -5 -22 -8 -37 -12 -55 -106 -77 -255 -59 -186 23
-380 -17 -580 -119 -168 -86 -501 -313 -501 -342 0 -18 176 -2 244 21 33 12
121 56 195 98 159 91 324 164 436 194 62 17 123 23 270 28 211 7 240 15 252
73 7 34 17 24 33 -34 14 -49 -3 -84 -47 -99 -24 -8 -85 -9 -196 -4 -182 8
-290 -5 -426 -51 -85 -29 -289 -127 -366 -176 l-50 -32 45 -13 c127 -37 220
-25 355 47 178 96 366 138 555 124 58 -4 118 -6 134 -6 32 2 66 27 66 51 1 29
30 -20 30 -51 0 -57 -89 -76 -217 -47 -104 23 -280 10 -397 -31 -66 -22 -236
-109 -236 -120 0 -14 97 -45 173 -54 41 -5 59 -1 120 28 140 66 305 94 452 76
77 -10 97 -10 127 3 20 8 39 25 43 37 5 16 10 19 20 10 25 -21 111 37 194 129
195 217 255 269 323 286 21 5 30 17 43 55 23 69 68 135 150 220 117 121 144
170 109 204 -25 25 -80 18 -199 -25z"/>
<path d="M2695 2626 c-167 -38 -282 -120 -455 -322 -87 -100 -152 -153 -194
-156 -17 -2 -26 -8 -26 -19 0 -50 -72 -66 -223 -49 -88 9 -131 9 -193 0 -87
-13 -219 -52 -248 -73 -16 -12 -13 -16 42 -45 74 -39 102 -40 211 -3 109 38
220 53 325 45 87 -7 146 10 146 41 0 20 13 19 33 -3 37 -41 8 -91 -54 -93 -19
-1 -79 2 -135 6 -110 9 -196 -2 -304 -37 -36 -11 -67 -22 -69 -24 -7 -6 29
-31 78 -55 51 -24 79 -22 166 12 54 21 76 24 208 24 l149 0 25 29 c19 22 23
36 19 58 -7 34 12 38 39 8 57 -63 -17 -135 -127 -123 -79 9 -298 -26 -298 -48
0 -15 74 -29 155 -30 l80 -1 -60 -15 c-65 -16 -118 -12 -250 22 -102 26 -170
53 -217 87 -58 43 -86 48 -164 32 -80 -17 -121 -41 -169 -97 l-36 -42 -187 0
c-103 0 -204 -4 -226 -9 l-38 -9 6 74 c4 41 12 109 18 153 9 64 8 80 -3 87
-23 14 -30 -21 -55 -277 -5 -51 -7 -53 -64 -88 -64 -39 -100 -78 -130 -136
-52 -102 -26 -210 62 -256 43 -22 54 -16 25 14 -38 39 -38 103 -1 137 32 30
124 59 124 39 0 -3 9 -51 20 -106 65 -316 207 -597 424 -838 l66 -74 -26 -44
-27 -45 24 7 c13 3 36 9 51 12 l27 6 -6 -51 c-3 -28 -2 -51 3 -51 5 1 21 19
37 41 l27 40 52 -63 c28 -35 55 -67 60 -73 5 -5 0 15 -12 45 -35 88 -40 101
-40 105 0 3 12 0 28 -6 44 -18 147 -22 159 -7 6 7 16 45 22 84 9 57 8 82 -4
128 -17 66 -23 78 -80 166 -106 163 -116 212 -61 302 49 81 58 112 65 219 l6
97 75 -44 c193 -113 407 -153 535 -100 20 9 41 13 46 10 5 -3 9 -51 9 -107 0
-56 6 -183 14 -282 8 -99 14 -283 14 -408 0 -194 3 -231 16 -246 21 -23 20
-50 -1 -73 -50 -56 85 -145 170 -112 25 9 -1 111 -41 156 -10 12 -13 29 -9 54
5 27 -1 53 -19 96 -18 44 -27 86 -31 156 l-6 97 53 22 c38 16 58 20 71 13 40
-22 58 -11 127 77 37 48 80 101 96 117 58 61 68 117 37 206 -13 37 -23 110
-30 222 l-12 167 29 40 c16 22 36 66 45 98 16 56 16 72 6 333 -1 19 -1 51 0
70 2 19 -1 61 -4 92 -9 68 13 124 71 178 l37 35 -36 -52 c-56 -84 -58 -160 -5
-235 26 -37 50 -121 53 -186 2 -38 9 -60 24 -76 11 -12 21 -27 21 -34 0 -17
14 -22 77 -27 56 -5 60 -4 90 27 36 38 54 94 46 142 -3 18 4 65 15 107 11 41
25 101 32 134 6 33 18 75 27 94 9 20 12 43 8 60 -13 51 -1 181 21 216 6 11 15
35 19 53 6 29 4 32 -17 32 -39 0 -46 -12 -45 -76 0 -74 -20 -114 -82 -161 -63
-49 -71 -40 -14 16 83 82 100 139 64 218 -22 48 -39 60 -139 103 -87 37 -172
45 -257 26z m221 -42 c57 -27 94 -78 94 -128 0 -27 -6 -48 -15 -56 -13 -11
-14 -8 -9 17 16 83 -65 152 -189 161 -52 4 -65 8 -47 13 46 13 131 9 166 -7z
m153 -149 c0 -22 -6 -53 -13 -70 l-13 -30 1 45 c0 25 -3 68 -7 95 l-8 50 20
-25 c13 -16 20 -39 20 -65z m-126 -18 c10 -20 17 -43 14 -50 -2 -6 -12 5 -22
26 -21 44 -37 44 -46 -2 -4 -17 -9 -35 -13 -38 -8 -8 -8 71 0 92 11 28 47 13
67 -28z m-739 -252 c-15 -20 -47 -48 -71 -62 l-45 -26 -21 22 -21 21 27 0 c30
0 86 26 127 59 35 28 35 26 4 -14z m804 -63 c3 -16 -1 -19 -25 -15 -29 5 -53
28 -53 49 0 21 75 -11 78 -34z m-1891 -422 c-35 -172 -7 -281 110 -431 52 -66
55 -104 19 -200 -25 -67 -22 -99 9 -116 33 -19 149 -160 172 -211 20 -43 24
-62 18 -98 -5 -35 -3 -45 9 -50 17 -7 22 -34 6 -34 -14 0 -33 -41 -32 -71 0
-15 8 -41 17 -58 8 -17 12 -31 8 -31 -12 0 -83 73 -83 85 0 6 18 28 40 50 30
30 37 42 28 52 -6 7 -8 29 -5 48 6 38 -4 53 -23 30 -7 -8 -10 -34 -8 -62 3
-46 2 -48 -26 -51 -27 -3 -28 -2 -23 25 3 15 8 46 12 68 l7 40 -33 -44 -32
-43 -14 26 c-15 29 -33 26 -33 -5 0 -37 -28 -18 -121 79 -221 231 -341 434
-395 671 -34 150 -36 143 44 175 61 24 125 65 242 154 24 17 54 32 68 32 22 0
24 -3 19 -30z m1317 -446 c9 -8 16 -28 16 -44 0 -32 44 -179 67 -224 21 -41
24 -84 8 -115 -40 -76 -141 -141 -192 -124 -28 10 -28 10 -25 89 1 43 10 144
19 224 15 138 17 147 46 178 35 37 40 38 61 16z"/>
<path d="M1508 1330 c3 -20 10 -30 22 -30 10 0 33 -3 51 -6 33 -7 32 -5 -20
30 -29 20 -54 36 -55 36 -2 0 -1 -13 2 -30z"/>
<path d="M1515 1234 c-8 -57 -34 -120 -76 -185 -16 -25 -29 -57 -29 -70 0 -20
52 -143 81 -189 5 -8 23 -39 40 -68 l32 -53 18 41 c18 40 14 79 -9 94 -18 11
-82 136 -82 161 0 51 17 72 75 94 89 33 127 56 174 105 25 25 43 47 40 49 -24
19 -140 57 -191 62 l-65 7 -8 -48z"/>
</g>
</svg>
